<svg width="66" height="66" viewBox="0 0 66 66" fill="none" xmlns="http://www.w3.org/2000/svg">
<g clip-path="url(#clip0_123_27)">
<path d="M18.3541 58.2539L18.3213 58.2355C17.7109 57.8899 16.9363 58.1041 16.5911 58.7141C16.245 59.3241 16.4597 60.0987 17.0697 60.4443L17.1024 60.4631C17.3003 60.5752 17.515 60.6283 17.7272 60.6283C18.1696 60.6283 18.599 60.3967 18.8326 59.9846C19.1782 59.3741 18.964 58.5995 18.3541 58.2539V58.2539Z" fill="#64A606"/>
<path d="M58.7837 26.6397C59.4239 26.0154 59.9788 25.3003 60.4222 24.5198C61.6808 22.3055 62.0011 19.7338 61.3247 17.2781C60.6488 14.8228 59.0569 12.7772 56.8427 11.5191V11.5196C55.8549 10.9583 54.8021 10.5848 53.7012 10.4028C52.9707 7.00738 50.8447 3.93525 47.5891 2.08553C44.6583 0.420282 41.2544 -0.00371641 38.0048 0.890895C35.0646 1.70071 32.5692 3.50233 30.8866 6.00863C30.5573 5.74431 30.2062 5.50628 29.8338 5.29453C27.992 4.24817 25.8526 3.98137 23.81 4.54373C23.3944 4.65828 22.9937 4.80557 22.6084 4.98161C22.3129 4.74358 21.9985 4.52885 21.6657 4.33991C18.2688 2.40985 13.9351 3.603 12.0055 6.99994C11.6207 7.67685 11.3559 8.39592 11.2106 9.14572C8.94427 9.96892 7.06231 11.5509 5.85825 13.6704C3.75264 17.3763 4.24061 21.8577 6.73699 25.0107C5.19473 28.2762 6.4092 32.2415 9.60035 34.0545C10.0551 34.3134 10.5322 34.5182 11.0261 34.6679C11.3192 36.361 12.3834 37.934 13.875 38.7815C14.7791 39.2952 15.7466 39.5531 16.7215 39.5531C16.9244 39.5531 17.1272 39.5422 17.3295 39.5199L17.333 40.3515L9.26561 54.5503C9.20065 54.6643 9.15552 54.7848 9.12874 54.9068C9.11089 54.9881 9.10147 55.07 9.09998 55.1518C9.09105 55.6021 9.32314 56.0429 9.74218 56.281L13.5463 58.4426C13.7446 58.5552 13.9598 58.6087 14.1721 58.6087C14.6139 58.6087 15.0434 58.3776 15.2775 57.966C15.6236 57.3566 15.4104 56.5815 14.8009 56.2353L12.1002 54.7005L19.7074 41.3121C19.817 41.1192 19.874 40.9015 19.8735 40.6798L19.8209 27.4709C19.8249 27.4684 19.8284 27.4664 19.8323 27.4639C19.8348 27.4625 19.8373 27.461 19.8398 27.4595L19.8408 27.459C19.8948 27.4272 19.9489 27.395 20.0024 27.3623C20.0099 27.3578 20.0178 27.3529 20.0248 27.3484L20.1001 27.3018C20.1403 27.277 20.18 27.2517 20.2226 27.2239L20.2668 27.1952C20.3164 27.1629 20.365 27.1302 20.414 27.0975C20.4408 27.0791 20.4671 27.0608 20.4894 27.0454C20.5217 27.0236 20.5534 27.0008 20.5856 26.978L20.659 26.9244C20.7151 26.8842 20.7706 26.8436 20.8256 26.8019C20.841 26.7905 20.8569 26.7786 20.8718 26.7672L20.9452 26.7107C20.9824 26.6819 21.019 26.6526 21.0612 26.6194L21.1004 26.5877C21.1391 26.5559 21.1777 26.5242 21.2164 26.492C21.2268 26.483 21.2363 26.4756 21.2472 26.4662L21.2913 26.429C21.3335 26.3933 21.3756 26.3566 21.4192 26.3184L21.4654 26.2772C21.4763 26.2673 21.4877 26.2569 21.4981 26.2475C21.5264 26.2222 21.5546 26.1964 21.5829 26.1706C21.5883 26.1657 21.5933 26.1612 21.5988 26.1562L21.629 26.128C21.6761 26.0838 21.7227 26.0397 21.7698 25.9941L21.7932 25.9713C21.8244 25.941 21.8551 25.9103 21.8859 25.8795C21.8958 25.8696 21.9067 25.8602 21.9166 25.8498H21.9171C22.0029 25.9197 22.0902 25.9876 22.179 26.0541C22.2092 26.0764 22.24 26.0972 22.2702 26.119C22.3302 26.1627 22.3902 26.2058 22.4517 26.2475C22.4587 26.2524 22.4656 26.2579 22.4725 26.2624L24.8623 37.3751L22.9397 40.7586C22.5935 41.3681 22.8068 42.1427 23.4163 42.4894C23.6141 42.6019 23.8298 42.655 24.0421 42.655C24.4839 42.655 24.9134 42.4244 25.147 42.0128L31.4534 30.9144L31.6889 31.1455C31.7008 31.1564 31.7117 31.1683 31.7236 31.1798L31.7846 31.2393C31.8109 31.2636 31.8377 31.2879 31.862 31.3102L31.8833 31.3295C31.9106 31.3543 31.9379 31.3786 31.9637 31.4009L31.986 31.4213C32.0133 31.4446 32.04 31.4679 32.0658 31.4897L32.1987 31.6013C32.229 31.6261 32.2587 31.6504 32.29 31.6752L32.3044 31.6871C32.3351 31.7114 32.3658 31.7352 32.3981 31.7605L32.531 31.8616C32.5622 31.8849 32.594 31.9082 32.6267 31.932L32.6485 31.9479C32.6798 31.9707 32.7115 31.993 32.7403 32.0134L32.7646 32.0302C32.7973 32.053 32.8305 32.0759 32.8608 32.0967L32.8781 32.1081C32.9113 32.1304 32.9451 32.1527 32.9842 32.179L33.0031 32.1909C33.0358 32.2127 33.069 32.234 33.1082 32.2588L33.1236 32.2683C33.1588 32.2906 33.194 32.3124 33.2218 32.3293C33.2257 32.3317 33.2297 32.3342 33.2337 32.3367C33.315 32.3863 33.3973 32.4349 33.4801 32.482C33.5163 32.5028 33.553 32.5232 33.5957 32.5465L33.6597 32.5782C33.8526 32.6823 34.048 32.781 34.2463 32.8703L34.2602 32.8772L34.2706 32.8812C34.5359 32.9992 34.8062 33.1044 35.0799 33.1961L35.1037 33.205C35.1082 33.2065 35.1122 33.208 35.1166 33.2095L35.4504 33.3126C35.4553 33.3141 35.4598 33.3151 35.4648 33.3166L35.5659 33.3449C35.5714 33.3464 35.5763 33.3479 35.5818 33.3493L35.6869 33.3771C35.7187 33.3855 35.7504 33.3935 35.7752 33.3994L35.924 33.4351C35.9612 33.4436 35.9983 33.452 36.0365 33.4604C36.0375 33.4604 36.039 33.4609 36.04 33.4609C36.0727 33.4679 36.1055 33.4748 36.1382 33.4817C36.1446 33.4827 36.1536 33.4847 36.1565 33.4852L36.3306 33.5189C36.3321 33.5189 36.3445 33.5209 36.3455 33.5214L36.4447 33.5353C36.6103 33.5631 36.7764 33.5859 36.943 33.6047L37.0516 33.6196L37.1037 33.6221C37.3507 33.6454 37.5991 33.6573 37.8471 33.6598L37.917 33.6632L31.1325 45.6031C30.8578 46.0871 30.9302 46.6941 31.3116 47.0998C31.6929 47.5059 32.2944 47.6155 32.7943 47.3705L42.5314 42.6064C42.6936 43.0805 42.8969 43.5397 43.1384 43.9786L37.861 47.3824C37.8605 47.3824 37.8605 47.3829 37.86 47.3834L32.4789 50.8538L26.2305 54.1709C25.6111 54.4992 25.3756 55.2678 25.7044 55.8872C25.9325 56.3167 26.3718 56.5616 26.8266 56.5616C27.0274 56.5616 27.2312 56.514 27.4207 56.4134L29.862 55.1176L25.7058 62.4322L23.2546 61.0397C22.6446 60.693 21.87 60.9063 21.5234 61.5162C21.1772 62.1257 21.3905 62.9008 21.9999 63.2469L25.5551 65.2667C25.748 65.3763 25.9642 65.4329 26.1819 65.4329C26.295 65.4329 26.4085 65.4175 26.5191 65.3873C26.8435 65.2975 27.1197 65.0833 27.2858 64.7902L34.0718 52.8478L37.8719 50.3966C38.5175 51.7593 39.5674 52.9068 40.9023 53.6656C42.0543 54.3202 43.3085 54.6306 44.5468 54.6306C47.125 54.6306 49.6332 53.2837 50.9955 50.8865C51.4373 50.1084 51.7339 49.2594 51.8723 48.3832C54.4688 48.0356 56.8804 46.523 58.2714 44.0753C59.3034 42.2593 59.6391 40.1794 59.2449 38.1512C59.9367 37.5893 60.5238 36.9 60.9667 36.12C62.8238 32.8505 61.83 28.7285 58.7837 26.6397V26.6397ZM55.5886 13.7269C57.2132 14.6498 58.381 16.1504 58.8769 17.952C59.3733 19.7536 59.1383 21.6405 58.2149 23.2651C58.0507 23.5542 57.8692 23.828 57.6709 24.0863C57.4611 23.1585 57.1219 22.2723 56.6716 21.4471C56.6647 21.4342 56.6577 21.4213 56.6508 21.4089C56.5903 21.2989 56.5273 21.1903 56.4624 21.0826C56.439 21.0435 56.4157 21.0038 56.3914 20.9651C56.3389 20.8793 56.2843 20.795 56.2288 20.7107C56.1896 20.6517 56.1499 20.5927 56.1098 20.5342C56.0641 20.4677 56.017 20.4018 55.9694 20.3368C55.9164 20.2634 55.8623 20.1905 55.8073 20.1186C55.7676 20.067 55.7274 20.015 55.6863 19.9639C55.6208 19.8816 55.5534 19.8007 55.4849 19.7204C55.4497 19.6792 55.415 19.6376 55.3788 19.5969C55.3024 19.5101 55.2241 19.4248 55.1447 19.3405C55.113 19.3063 55.0813 19.2721 55.0485 19.2384C54.9637 19.1506 54.8764 19.0643 54.7882 18.9795C54.7574 18.9503 54.7277 18.9205 54.6964 18.8912C54.6047 18.805 54.51 18.7206 54.4148 18.6378C54.3845 18.6115 54.3553 18.5843 54.3245 18.5585C54.2263 18.4747 54.1252 18.3934 54.0235 18.3135C53.9932 18.2897 53.9645 18.2654 53.9342 18.2421C53.8266 18.1593 53.7165 18.0794 53.6049 18.0006C53.5792 17.9822 53.5534 17.9624 53.5271 17.9441C53.3887 17.8479 53.2479 17.7546 53.1046 17.6649C53.115 17.6391 53.1234 17.6123 53.1338 17.586C53.1378 17.5756 53.1413 17.5647 53.1452 17.5543C53.7091 16.0864 53.9808 14.565 53.9818 13.0599C54.5382 13.2126 55.0753 13.4353 55.5886 13.7269V13.7269ZM20.3659 6.52189C20.172 6.71282 19.9871 6.91415 19.8125 7.12541C19.8076 7.13136 19.8026 7.13781 19.7971 7.14425C19.6513 7.32228 19.512 7.50676 19.3806 7.69818C19.3409 7.7557 19.3022 7.81372 19.264 7.87224C19.2412 7.90745 19.2189 7.94216 19.1966 7.97787C19.1356 8.07457 19.0766 8.17226 19.0201 8.27194C18.8346 8.59824 18.6734 8.93397 18.537 9.27912C18.3932 9.22011 18.2489 9.16556 18.1031 9.11349C18.063 9.09911 18.0228 9.08621 17.9826 9.07233C17.8765 9.03563 17.7699 9.00042 17.6628 8.9672C17.6147 8.95282 17.5671 8.93893 17.519 8.92505C17.4168 8.89529 17.3146 8.86702 17.2115 8.84074C17.1639 8.82834 17.1158 8.81644 17.0677 8.80454C16.9596 8.77875 16.851 8.75445 16.7419 8.73214C16.7007 8.72371 16.6596 8.71429 16.6184 8.70635C16.483 8.68007 16.3471 8.65676 16.2108 8.63643C16.1964 8.63445 16.182 8.63147 16.1676 8.62949C16.0104 8.60618 15.8522 8.58684 15.694 8.57147C15.6831 8.57047 15.6722 8.56948 15.6613 8.56849C15.52 8.5551 15.3781 8.54518 15.2363 8.53774C15.1981 8.53576 15.1594 8.53477 15.1213 8.53279C15.0052 8.52832 14.8897 8.52535 14.7736 8.52435C14.7528 8.52435 14.732 8.52287 14.7116 8.52287C14.673 8.52287 14.6348 8.52435 14.5961 8.52485C14.5396 8.52535 14.4825 8.52584 14.4255 8.52783C14.3442 8.52981 14.2633 8.53378 14.1825 8.53824C14.1418 8.54022 14.1017 8.54122 14.061 8.5437C14.1076 8.446 14.1582 8.3498 14.2123 8.25458C15.4426 6.08996 18.1934 5.31982 20.3659 6.52189ZM15.1297 36.5742C14.1339 36.0084 13.4575 34.8128 13.4843 33.6667C13.4991 33.0255 13.0345 32.4741 12.4002 32.3808C11.8567 32.3005 11.337 32.121 10.8545 31.8472C9.08957 30.8445 8.2738 28.8064 8.73549 26.9259C8.74491 26.9328 8.75483 26.9388 8.76376 26.9457C8.8674 27.0196 8.97352 27.0905 9.08014 27.1614C9.12378 27.1902 9.16593 27.2205 9.21007 27.2487C9.36132 27.3459 9.51604 27.4396 9.67424 27.5299C9.80615 27.6043 9.93905 27.6747 10.0724 27.7431C10.1017 27.758 10.131 27.7729 10.1607 27.7878C10.4399 27.9271 10.7236 28.0526 11.0097 28.1642C11.0191 28.1681 11.0286 28.1716 11.038 28.1751C12.2232 28.6328 13.461 28.8569 14.6898 28.8564C14.733 28.8564 14.7756 28.854 14.8188 28.8535C14.8619 28.853 14.905 28.8515 14.9482 28.85C15.0667 28.847 15.1847 28.8431 15.3028 28.8361C15.3533 28.8326 15.4039 28.8287 15.4545 28.8247C15.5656 28.8163 15.6767 28.8073 15.7873 28.7954C15.8443 28.789 15.9008 28.7816 15.9578 28.7741C16.0625 28.7612 16.1671 28.7478 16.2713 28.7315C16.3323 28.7216 16.3928 28.7106 16.4533 28.6997C16.5544 28.6819 16.6551 28.664 16.7558 28.6432C16.8168 28.6308 16.8777 28.6159 16.9387 28.6025C17.0389 28.5797 17.1391 28.5569 17.2388 28.5311C17.2546 28.5272 17.2705 28.5242 17.2859 28.5197L17.3196 36.957C16.5762 37.1073 15.8418 36.9794 15.1297 36.5742ZM26.7463 34.059L25.322 27.4367C26.6352 27.6866 27.9939 27.5859 29.263 27.1371C29.4112 27.6484 29.6056 28.1423 29.8387 28.6159L26.7463 34.059ZM40.6936 33.9152C41.2654 34.4423 41.8976 34.904 42.5845 35.2943C42.7689 35.3984 42.9559 35.4976 43.1458 35.5908C42.3717 36.9883 42.0276 38.5112 42.0672 40.0059L35.371 43.2828L40.6936 33.9152ZM48.7882 49.6314C47.4632 51.9631 44.4877 52.7819 42.157 51.4573C41.181 50.9029 40.4352 50.0331 40.0315 49.0031L44.6811 46.0043C44.6901 46.0128 44.7 46.0207 44.7089 46.0291C44.819 46.1357 44.9326 46.2389 45.0491 46.3401C45.0992 46.3832 45.1508 46.4249 45.2018 46.467C45.2807 46.532 45.3605 46.5964 45.4424 46.6594C45.4959 46.7006 45.55 46.7412 45.604 46.7809C45.6928 46.8454 45.783 46.9084 45.8748 46.9703C45.9219 47.0026 45.969 47.0353 46.0171 47.0661C46.1579 47.1573 46.3008 47.2456 46.4485 47.3299C46.5502 47.3874 46.6524 47.442 46.7555 47.495C46.7808 47.5084 46.8066 47.5213 46.8324 47.5337C46.9182 47.5773 47.0045 47.619 47.0907 47.6592C47.1096 47.6676 47.1289 47.677 47.1478 47.6854C47.3724 47.7876 47.599 47.8793 47.8277 47.9607C47.8296 47.9612 47.8316 47.9622 47.8331 47.9627C47.9511 48.0048 48.0702 48.044 48.1892 48.0802C48.1892 48.0807 48.1897 48.0807 48.1902 48.0807C48.4252 48.1531 48.6618 48.2146 48.8998 48.2657C48.9191 48.2701 48.938 48.2741 48.9573 48.2781C49.0506 48.2974 49.1433 48.3152 49.237 48.3316C49.2559 48.3346 49.2752 48.339 49.2945 48.3425C49.1884 48.7913 49.0183 49.2257 48.7882 49.6314V49.6314ZM56.0641 42.8201C54.9181 44.8375 52.7917 45.9567 50.6206 45.9205C50.5874 45.92 50.5546 45.918 50.5214 45.917C50.4014 45.9131 50.2814 45.9051 50.1609 45.8942C50.0999 45.8888 50.0384 45.8833 49.9774 45.8754C49.9273 45.8694 49.8772 45.862 49.8271 45.8541C49.7533 45.8432 49.6794 45.8313 49.606 45.8174C49.5668 45.8099 49.5271 45.803 49.4879 45.7946C49.3803 45.7722 49.2727 45.7474 49.1661 45.7197C49.1602 45.7182 49.1547 45.7167 49.1492 45.7152C49.0287 45.683 48.9102 45.6468 48.7922 45.6076C48.7738 45.6017 48.7555 45.5947 48.7376 45.5883C48.6414 45.5555 48.5462 45.5198 48.452 45.4821C48.4227 45.4702 48.394 45.4583 48.3647 45.4459C48.2794 45.4102 48.1946 45.372 48.1103 45.3324C48.0821 45.3185 48.0533 45.3061 48.025 45.2917C47.9159 45.2382 47.8083 45.1826 47.7027 45.1221C47.6119 45.071 47.5232 45.017 47.4364 44.9619C47.4205 44.952 47.4061 44.9411 47.3908 44.9312C47.3189 44.8846 47.247 44.8375 47.1775 44.7879C47.1671 44.7804 47.1567 44.772 47.1463 44.7646C47.0724 44.7115 46.9995 44.6575 46.9291 44.6014C46.9241 44.5979 46.9197 44.594 46.9147 44.59C46.519 44.2756 46.1698 43.9181 45.8708 43.5283C45.8222 43.4648 45.7756 43.3993 45.729 43.3339C45.6759 43.2585 45.6248 43.1821 45.5753 43.1048C45.5524 43.0686 45.5291 43.0324 45.5068 42.9962C45.4676 42.9322 45.43 42.8682 45.3933 42.8033C45.3769 42.774 45.3615 42.7447 45.3462 42.7155C45.2232 42.4889 45.1146 42.2553 45.0218 42.0158C45.0119 41.991 45.0025 41.9657 44.9931 41.9409C44.8993 41.69 44.822 41.4336 44.7615 41.1727C44.7575 41.1544 44.7526 41.1365 44.7486 41.1177C44.7302 41.0364 44.7144 40.954 44.6995 40.8717C44.6945 40.8449 44.6901 40.8182 44.6856 40.7914C44.4629 39.4519 44.6792 38.0307 45.4002 36.7612C45.5906 36.4264 45.8128 36.1086 46.0612 35.816C46.339 35.4892 46.4327 35.0443 46.3102 34.6332C46.1882 34.2221 45.8669 33.9003 45.4562 33.7778C44.8964 33.6112 44.3524 33.3786 43.8391 33.0865C42.9599 32.5876 42.2006 31.935 41.5817 31.147C41.3358 30.8346 40.9653 30.662 40.5835 30.662C40.4392 30.662 40.2944 30.6863 40.1535 30.7369C40.0479 30.7751 39.9413 30.8098 39.8347 30.842L39.3536 30.9665C39.3239 30.973 39.2936 30.9794 39.2639 30.9859L38.6113 31.0865C38.3489 31.1133 38.0866 31.1252 37.8243 31.1202L37.6919 31.1173C37.6403 31.1148 37.5892 31.1113 37.5376 31.1078L36.6951 31.0017C36.5934 30.9814 36.4918 30.9586 36.3911 30.9338L36.346 30.9229C36.2865 30.9075 36.2275 30.8901 36.1684 30.8733L35.6239 30.6923C35.5942 30.6809 35.5644 30.6685 35.5342 30.6566L34.8434 30.3323C34.8072 30.3124 34.77 30.2946 34.7343 30.2742C34.6435 30.2222 34.5553 30.1671 34.4675 30.1111L34.3197 30.0149C34.2662 29.9792 34.2136 29.942 34.1615 29.9043L33.7727 29.6058C33.7331 29.5725 33.6954 29.5373 33.6562 29.5031L33.3879 29.2537C33.3418 29.2085 33.2962 29.1624 33.252 29.1158L32.8732 28.6839C32.8379 28.6397 32.8037 28.5951 32.77 28.551L32.4144 28.0322C31.8858 27.1748 31.5536 26.1954 31.4663 25.1605C31.4286 24.7156 31.1598 24.3229 30.7591 24.1265C30.3579 23.9306 29.8829 23.9599 29.5084 24.2034C27.9091 25.2448 25.8854 25.3068 24.2276 24.365C23.686 24.0571 23.2124 23.6599 22.8197 23.1843C22.6332 22.9582 22.3763 22.8054 22.0952 22.7479C22.0818 22.7454 22.0684 22.7444 22.0555 22.7419C22.0213 22.7365 21.9876 22.73 21.9528 22.7271C21.9201 22.7241 21.8869 22.7246 21.8542 22.7241C21.8383 22.7241 21.8234 22.7226 21.8075 22.7226H21.807C21.7758 22.7236 21.7451 22.7276 21.7138 22.7305C21.697 22.7325 21.6796 22.7325 21.6627 22.735C21.6335 22.739 21.6047 22.7459 21.576 22.7524C21.5576 22.7563 21.5393 22.7583 21.5214 22.7633C21.4936 22.7707 21.4664 22.7806 21.4396 22.7895C21.4212 22.7955 21.4029 22.8 21.385 22.8069C21.3587 22.8168 21.3335 22.8297 21.3082 22.8416C21.2903 22.85 21.272 22.8565 21.2546 22.8659C21.2308 22.8783 21.2075 22.8937 21.1842 22.9076C21.1668 22.918 21.149 22.9274 21.1321 22.9388C21.1093 22.9542 21.088 22.972 21.0662 22.9889C21.0503 23.0013 21.0334 23.0122 21.0181 23.0251C20.9967 23.043 20.9774 23.0633 20.9576 23.0831C20.9432 23.097 20.9278 23.1099 20.9139 23.1243C20.8936 23.1466 20.8747 23.1704 20.8559 23.1937C20.8445 23.2081 20.8321 23.221 20.8212 23.2359C20.8207 23.2359 20.8207 23.2364 20.8207 23.2369H20.8202C20.7503 23.3321 20.6779 23.4248 20.604 23.5156C20.603 23.5165 20.6025 23.517 20.602 23.518C20.598 23.5225 20.5946 23.527 20.5911 23.5314C20.5226 23.6147 20.4527 23.6961 20.3818 23.7759C20.3783 23.7799 20.3759 23.7828 20.3724 23.7868C20.3645 23.7952 20.357 23.8037 20.3491 23.8121C20.2816 23.8865 20.2132 23.9599 20.1438 24.0308L20.1289 24.0462C20.117 24.0581 20.1061 24.069 20.0942 24.0804C20.0347 24.1404 19.9737 24.1994 19.9122 24.2574C19.9082 24.2609 19.9038 24.2654 19.8998 24.2688L19.874 24.2931C19.8576 24.308 19.8428 24.3214 19.8269 24.3358C19.7758 24.3824 19.7237 24.428 19.6717 24.4731C19.6632 24.4801 19.6553 24.4875 19.6474 24.4945L19.6097 24.5262C19.5874 24.545 19.5656 24.5629 19.5437 24.5803C19.5046 24.613 19.4649 24.6447 19.4247 24.6765C19.4118 24.6869 19.3989 24.6968 19.3855 24.7077L18.9804 25.0018C18.9541 25.0196 18.9273 25.0375 18.8996 25.0558L18.8435 25.0925C18.8123 25.1124 18.781 25.1327 18.7498 25.152L18.6972 25.1848C18.666 25.2041 18.6337 25.2234 18.6045 25.2408L18.5524 25.2715C18.5519 25.272 18.5514 25.2725 18.5509 25.2725C18.5217 25.2899 18.4919 25.3068 18.4597 25.3246C18.4587 25.3256 18.4577 25.3261 18.4562 25.3266C18.4532 25.3286 18.4503 25.3301 18.4473 25.332L18.4428 25.3345C18.2985 25.4159 18.1492 25.4932 17.9995 25.5651C17.2983 25.9013 16.5594 26.124 15.8086 26.2346C15.8001 26.2356 15.7922 26.2366 15.7838 26.2381C15.3365 26.3025 14.8852 26.3273 14.4349 26.312C14.4334 26.312 14.4319 26.312 14.4305 26.312C13.9782 26.2961 13.5274 26.24 13.0841 26.1443C13.0786 26.1433 13.0732 26.1424 13.0682 26.1409C12.9224 26.1091 12.7771 26.0734 12.6328 26.0328C12.6328 26.0328 12.6328 26.0328 12.6323 26.0328C12.3506 25.9539 12.0729 25.8572 11.8002 25.7451C11.7704 25.7332 11.7412 25.7203 11.7119 25.7079C11.6098 25.6643 11.5081 25.6182 11.4069 25.5701C11.3732 25.5537 11.34 25.5383 11.3063 25.5215C11.1793 25.4585 11.0533 25.393 10.9294 25.3221C10.8272 25.2646 10.728 25.2036 10.6298 25.1421C10.6026 25.1248 10.5753 25.1069 10.548 25.0896C10.4697 25.0385 10.3918 24.9864 10.3154 24.9328C10.2956 24.919 10.2758 24.9056 10.2559 24.8917C10.1622 24.8247 10.0705 24.7558 9.98071 24.6854C9.96285 24.671 9.945 24.6561 9.92715 24.6417C9.85177 24.5812 9.77739 24.5198 9.70449 24.4568C9.68564 24.4404 9.6668 24.424 9.64795 24.4077C7.00081 22.0705 6.25398 18.1142 8.06602 14.9245C10.0075 11.5082 14.2073 10.1638 17.7327 11.6967C17.7451 11.7026 17.7585 11.7071 17.7709 11.713C17.8661 11.7547 17.9603 11.8003 18.054 11.8464C18.0768 11.8573 18.0997 11.8672 18.1225 11.8787C18.2316 11.9337 18.3397 11.9917 18.4473 12.0527C18.4527 12.0557 18.4582 12.0582 18.4637 12.0616C18.5365 12.1028 18.608 12.1459 18.6789 12.1891C18.6809 12.1906 18.6833 12.1911 18.6853 12.1926C18.726 12.2169 18.7676 12.2397 18.8113 12.2595C19.1182 12.4008 20.6744 13.2335 21.1604 15.7784C21.2769 16.3864 21.809 16.8099 22.4061 16.8099C22.4849 16.8099 22.5653 16.8025 22.6456 16.7871C23.3344 16.6552 23.7862 15.9907 23.6543 15.3019C23.1504 12.6652 21.7867 11.226 20.7944 10.5025C20.906 10.1658 21.0498 9.839 21.2273 9.52608C21.2794 9.43434 21.3349 9.34508 21.392 9.25681C21.4044 9.23747 21.4178 9.21862 21.4302 9.19978C21.4792 9.12589 21.5298 9.05348 21.5824 8.98257C21.5918 8.96968 21.6017 8.95629 21.6117 8.9429C22.0138 8.4098 22.5117 7.95307 23.0785 7.60346C23.08 7.60247 23.0815 7.60098 23.0835 7.59999C23.5139 7.33518 23.9836 7.12938 24.4844 6.99151C25.873 6.60917 27.3275 6.79018 28.5796 7.5018C29.1945 7.85092 29.7256 8.30814 30.1581 8.85959C30.4278 9.20374 30.8558 9.38425 31.2902 9.33863C31.7246 9.29301 32.105 9.0272 32.2974 8.63445C32.3946 8.43608 32.4903 8.25359 32.5905 8.07754C33.921 5.73638 36.0831 4.05328 38.6792 3.33868C41.2748 2.62408 43.9938 2.96279 46.335 4.2928C49.1433 5.88862 50.9003 8.62254 51.3362 11.591C51.3377 11.6357 51.3406 11.6803 51.3466 11.7249C51.4998 12.87 51.4567 14.017 51.2236 15.1268C51.2231 15.1288 51.2226 15.1313 51.2221 15.1333C51.2182 15.1526 51.2132 15.1715 51.2092 15.1903C51.2063 15.2017 51.2023 15.2121 51.1998 15.2235C51.0927 15.712 50.9489 16.1905 50.7713 16.6552C50.7609 16.6825 50.7495 16.7093 50.7391 16.7365C50.7227 16.7787 50.7049 16.8203 50.688 16.862C50.6563 16.9389 50.6246 17.0152 50.5913 17.0916C50.5814 17.1139 50.5715 17.1362 50.5616 17.1585C50.5482 17.1888 50.5343 17.2195 50.5204 17.2498C50.4674 17.3658 50.4123 17.4809 50.3543 17.5959C50.2794 17.7447 50.2021 17.892 50.1197 18.0373C48.6221 20.6725 46.0498 22.4786 43.0625 22.9919C42.3717 23.1109 41.9075 23.767 42.0266 24.4583C42.1327 25.0762 42.6693 25.5126 43.2762 25.5126C43.3477 25.5126 43.4201 25.5066 43.4925 25.4942C46.9841 24.8942 50.0225 22.8833 51.9357 19.9341C51.9809 19.9639 52.026 19.9936 52.0701 20.0244C52.0939 20.0407 52.1187 20.0571 52.1425 20.074C52.2288 20.1355 52.3131 20.1984 52.3964 20.2629C52.4297 20.2882 52.4614 20.3145 52.4941 20.3403C52.5482 20.3839 52.6022 20.428 52.6553 20.4727C52.6905 20.5024 52.7257 20.5322 52.7604 20.5624C52.8343 20.6269 52.9072 20.6929 52.9781 20.7603C53.0114 20.7915 53.0436 20.8243 53.0763 20.856C53.1214 20.9006 53.1671 20.9458 53.2112 20.9914C53.2459 21.0271 53.2801 21.0633 53.3143 21.0995C53.3649 21.1536 53.4145 21.2086 53.4636 21.2646C53.4968 21.3023 53.5301 21.3405 53.5628 21.3792C53.6183 21.4447 53.6729 21.5106 53.7259 21.5781C53.7488 21.6073 53.7716 21.6371 53.7944 21.6663C53.8514 21.7407 53.9074 21.8161 53.9615 21.893C53.9699 21.9049 53.9794 21.9168 53.9878 21.9287C54.0567 22.0268 54.1232 22.1265 54.1871 22.2282C54.1901 22.2326 54.1926 22.2371 54.1956 22.2421C54.5948 22.8763 54.9032 23.5731 55.1075 24.3159C55.2082 24.6814 55.2811 25.0499 55.3277 25.4188C55.3302 25.4416 55.3327 25.4645 55.3357 25.4873C55.3446 25.5671 55.352 25.6469 55.359 25.7273C55.3629 25.7744 55.3674 25.822 55.3704 25.8696C55.3714 25.884 55.3719 25.8984 55.3728 25.9128C55.3823 26.0749 55.3872 26.2386 55.3862 26.4027V26.4161C55.3857 26.5049 55.3838 26.5936 55.3803 26.6829C55.3798 26.6849 55.3803 26.6869 55.3803 26.6888C55.3778 26.7498 55.3748 26.8103 55.3714 26.8708C55.3709 26.8748 55.3699 26.8783 55.3699 26.8818C55.3416 27.3077 55.2786 27.7258 55.1824 28.1349C55.173 28.1746 55.1626 28.2138 55.1527 28.2534C55.1304 28.3417 55.1065 28.43 55.0813 28.5177C55.0654 28.5718 55.049 28.6254 55.0322 28.6789C55.0089 28.7528 54.9846 28.8257 54.9593 28.8991C54.9389 28.9571 54.9181 29.0151 54.8963 29.0732C54.87 29.1436 54.8417 29.2135 54.813 29.2834C54.7897 29.3399 54.7673 29.396 54.7426 29.452C54.7088 29.5294 54.6721 29.6067 54.6354 29.6836C54.6136 29.7297 54.5928 29.7758 54.57 29.821C54.5085 29.944 54.4445 30.0655 54.3761 30.1855C54.0731 30.7186 53.7116 31.2105 53.2965 31.6533C53.1581 31.8011 53.0143 31.9434 52.8646 32.0803C52.5477 32.3689 52.3979 32.7989 52.4668 33.2219C52.5358 33.6454 52.814 34.0054 53.2062 34.179C53.3957 34.2628 53.5826 34.357 53.7617 34.4592C53.8484 34.5083 53.9337 34.5598 54.0175 34.6124C54.0637 34.6417 54.1083 34.6729 54.1534 34.7032C54.1896 34.7275 54.2263 34.7508 54.2615 34.7756C54.322 34.8177 54.38 34.8618 54.4386 34.9055C54.4574 34.9199 54.4767 34.9338 54.4956 34.9481C54.562 34.9997 54.6275 35.0533 54.6915 35.1073C54.7004 35.1148 54.7098 35.1222 54.7188 35.1296C54.7887 35.1891 54.8566 35.2501 54.9231 35.3121C54.9265 35.3151 54.9295 35.3176 54.9325 35.3206C55.2122 35.5829 55.4661 35.8705 55.6907 36.18C55.6912 36.1805 55.6917 36.181 55.6922 36.1814C55.7468 36.2563 55.7993 36.3327 55.8504 36.4101C55.8529 36.414 55.8559 36.418 55.8583 36.422C55.9069 36.4959 55.9536 36.5707 55.9987 36.6471C56.0036 36.6555 56.0091 36.664 56.0141 36.6729C56.0562 36.7443 56.0969 36.8172 56.136 36.8906C56.1435 36.905 56.1514 36.9194 56.1594 36.9342C56.1951 37.0022 56.2293 37.0716 56.2625 37.141C56.2729 37.1623 56.2828 37.1837 56.2928 37.205C56.3225 37.269 56.3508 37.3339 56.3785 37.3994C56.3904 37.4277 56.4023 37.4564 56.4138 37.4852C56.4381 37.5447 56.4614 37.6047 56.4837 37.6652C56.4966 37.7009 56.5095 37.7366 56.5219 37.7723C56.5412 37.8283 56.56 37.8839 56.5774 37.9404C56.6007 38.0138 56.624 38.0877 56.6448 38.1626C57.0793 39.7415 56.8735 41.3959 56.0641 42.8201V42.8201ZM58.7594 34.8648C58.6235 35.1043 58.4668 35.33 58.2927 35.5402C57.8251 34.7056 57.2236 33.9568 56.507 33.3201C56.4951 33.3097 56.4832 33.2993 56.4713 33.2888C56.3681 33.1981 56.263 33.1098 56.1549 33.024C56.138 33.0101 56.1212 32.9963 56.1038 32.9829C55.9833 32.8881 55.8608 32.7949 55.7349 32.7066C55.7735 32.6571 55.8102 32.606 55.8484 32.5559C55.963 32.4036 56.075 32.2489 56.1817 32.0902C56.323 31.879 56.4574 31.6623 56.5834 31.4396C56.6597 31.3057 56.7311 31.1703 56.8011 31.0345C56.8169 31.0032 56.8328 30.972 56.8482 30.9407C56.986 30.6655 57.1105 30.3858 57.2221 30.1022C57.2335 30.0729 57.2444 30.0436 57.2558 30.0144C57.3064 29.882 57.3545 29.7491 57.3991 29.6157C57.4036 29.6033 57.408 29.5914 57.412 29.5795C57.4561 29.4456 57.4968 29.3112 57.535 29.1758C57.5509 29.1213 57.5652 29.0667 57.5801 29.0122C57.5881 28.9819 57.597 28.9517 57.6049 28.9209C59.3728 30.3208 59.9069 32.845 58.7594 34.8648V34.8648Z" fill="#64A606"/>
<path d="M39.4995 22.9656L39.4851 22.9632C38.7968 22.8303 38.1313 23.2815 37.9988 23.9698C37.8664 24.6587 38.3172 25.3237 39.0055 25.4561C39.0075 25.4566 39.0184 25.4586 39.0214 25.4591C39.1022 25.4744 39.1826 25.4819 39.2614 25.4819C39.858 25.4819 40.3896 25.0594 40.5066 24.4524C40.639 23.7636 40.1883 23.098 39.4995 22.9656Z" fill="#64A606"/>
<path d="M22.0223 46.2097C22.4641 46.2097 22.8931 45.9791 23.1271 45.5675L23.146 45.5347C23.4921 44.9253 23.2794 44.1502 22.6699 43.8035C22.0604 43.4574 21.2853 43.6706 20.9387 44.2796L20.9199 44.3128C20.5737 44.9223 20.787 45.6974 21.3964 46.0435C21.5943 46.1566 21.8095 46.2097 22.0223 46.2097Z" fill="#64A606"/>
</g>
<defs>
<clipPath id="clip0_123_27">
<rect width="64.9992" height="65" fill="white" transform="translate(0.725159 0.432617)"/>
</clipPath>
</defs>
</svg>
