<svg width="66" height="66" viewBox="0 0 66 66" fill="none" xmlns="http://www.w3.org/2000/svg">
<g clip-path="url(#clip0_123_32)">
<path d="M62.3304 28.5814C67.6377 24.5395 66.4188 15.7114 60.1262 13.3391C61.2547 9.09592 58.725 4.30547 54.5467 2.87391C50.1468 1.15147 44.7935 3.59223 43.1929 8.02219C42.8053 7.96033 42.4108 7.92374 42.0111 7.91358C41.801 5.98066 40.9676 4.18378 39.5961 2.74981C34.4059 -2.6952 25.1491 0.461474 24.3337 7.91358C23.934 7.92374 23.5395 7.96045 23.1519 8.02231C22.3457 5.92515 20.8079 4.2398 18.7737 3.24076C16.5762 2.16169 14.0988 2.03123 11.7982 2.87391C7.61986 4.30521 5.09005 9.0963 6.21853 13.3391C-0.0763887 15.7127 -1.29099 24.5414 4.01429 28.5814C2.27343 30.2857 1.39213 32.4251 1.50391 34.7522C1.66181 38.0383 3.86999 41.2401 7.26686 43.1078C12.4761 45.9721 23.2537 51.8984 25.5547 57.6654C26.2203 67.4497 40.1278 67.4422 40.7897 57.6654C43.0908 51.8984 53.8683 45.9722 59.0776 43.1078C62.4745 41.2401 64.6826 38.0383 64.8405 34.7522C64.9526 32.4251 64.0713 30.2857 62.3304 28.5814ZM8.49099 40.8817C3.79581 38.363 2.14348 32.6289 6.89874 29.4953C7.27257 29.2401 7.48255 28.8054 7.44965 28.3541C7.41687 27.9027 7.14644 27.5028 6.73971 27.3044C1.38261 24.6363 2.24472 16.7881 8.11131 15.4044C8.47613 15.3205 8.78543 15.0799 8.95653 14.7468C9.12763 14.4139 9.143 14.0223 8.99883 13.6768C7.56841 10.4548 9.33494 6.39882 12.672 5.25916C14.3154 4.65745 16.0846 4.75031 17.6537 5.52096C19.0573 6.21032 20.1303 7.35722 20.7212 8.78522C16.095 10.9303 14.2438 17.2155 17.0215 21.4675C11.083 24.0824 10.828 31.497 15.0792 36.2266C19.0594 40.7927 23.2487 46.0366 24.8622 52.1825C21.0896 48.1477 14.8849 44.3974 8.49099 40.8817ZM33.1724 62.5017C30.3772 62.5017 28.1021 60.2328 28.0915 57.44C28.0918 57.4226 28.0918 57.4052 28.0913 57.3877C28.0778 48.054 22.3569 40.7095 16.9941 34.5572C13.4518 30.5776 13.8724 24.6245 19.4154 23.318C20.347 23.0989 20.6945 21.8844 20.0197 21.206C17.7362 18.8313 17.9712 15.8951 18.9525 13.9392C19.8711 11.9354 22.4716 10.0387 25.4005 10.5038C25.7716 10.5511 26.145 10.4309 26.4203 10.1773C26.6954 9.92335 26.8445 9.56095 26.8279 9.18699C26.7498 7.43419 27.3736 5.77158 28.5845 4.50566C30.9581 1.91043 35.3864 1.91056 37.7599 4.50566C38.9709 5.7717 39.5947 7.43432 39.5166 9.18699C39.4999 9.56095 39.649 9.92335 39.9242 10.1773C40.1994 10.4311 40.5728 10.5512 40.9439 10.5038C46.9247 9.78451 50.4392 16.8558 46.3249 21.206C45.65 21.883 45.9977 23.1002 46.929 23.318C49.2367 23.9014 50.7752 25.229 51.3782 27.1569C52.0985 29.4604 51.3215 32.2959 49.3504 34.5573C43.9875 40.7096 38.2666 48.054 38.2532 57.3878C38.2527 57.4054 38.2527 57.4228 38.2529 57.4402C38.2426 60.2328 35.9675 62.5017 33.1724 62.5017ZM62.3031 34.6302C62.1873 37.0409 60.4823 39.4363 57.8536 40.8817C51.4597 44.3975 45.255 48.1479 41.4825 52.1828C43.096 46.0369 47.2853 40.7929 51.2655 36.2268C53.8127 33.3045 54.785 29.5388 53.8031 26.3987C53.1076 24.1753 51.5443 22.4694 49.3233 21.4678C52.1016 17.2152 50.2487 10.9298 45.6236 8.78522C46.8263 5.71111 50.5858 4.05206 53.6727 5.25942C57.01 6.39908 58.7762 10.4551 57.3459 13.677C57.2016 14.0225 57.2171 14.4142 57.3882 14.7471C57.5593 15.0801 57.8686 15.3207 58.2334 15.4047C61.4518 16.1447 62.8609 18.7018 63.1065 20.8482C63.3552 23.0222 62.566 25.86 59.605 27.3045C59.1983 27.5029 58.9277 27.9028 58.8951 28.3543C58.8623 28.8057 59.0723 29.2404 59.446 29.4954C61.4122 30.8368 62.4002 32.6125 62.3031 34.6302Z" fill="#64A606"/>
<path d="M44.7417 29.6631C44.2873 29.1286 43.4857 29.0635 42.9512 29.5179L34.4425 36.7504V24.5418L41.024 18.9475C41.5585 18.4933 41.6235 17.6915 41.1691 17.157C40.7147 16.6225 39.9131 16.5574 39.3786 17.0118L34.4425 21.2075V9.24352C34.3753 7.55817 31.9685 7.55944 31.902 9.24352V21.2075L26.966 17.0118C26.4316 16.5574 25.6298 16.6225 25.1754 17.157C24.7211 17.6915 24.7861 18.4933 25.3206 18.9475L31.902 24.5418V36.7504L23.3933 29.5179C22.8589 29.0634 22.0571 29.1286 21.6028 29.6631C21.1484 30.1976 21.2134 30.9993 21.7479 31.4536L31.902 40.0846V57.4207C31.9692 59.1061 34.3759 59.1048 34.4425 57.4207V40.0846L44.5965 31.4536C45.1312 30.9993 45.1962 30.1976 44.7417 29.6631Z" fill="#64A606"/>
</g>
<defs>
<clipPath id="clip0_123_32">
<rect width="65" height="65" fill="white" transform="translate(0.672424 0.00488281)"/>
</clipPath>
</defs>
</svg>
