<svg width="66" height="66" viewBox="0 0 66 66" fill="none" xmlns="http://www.w3.org/2000/svg">
<path d="M57.3005 30.4851C57.1788 30.4299 57.0474 30.3992 56.9139 30.3949C56.7803 30.3905 56.6472 30.4125 56.5222 30.4597C56.3972 30.5069 56.2828 30.5783 56.1854 30.6698C56.088 30.7613 56.0096 30.8711 55.9548 30.9929C55.0631 32.9581 52.262 34.5608 50.2673 35.4505C50.6059 32.0749 50.4323 28.6676 49.7523 25.344C49.7303 25.209 49.6812 25.0799 49.608 24.9644C49.5349 24.8489 49.4391 24.7493 49.3265 24.6717C49.2139 24.594 49.0868 24.54 48.9528 24.5126C48.8189 24.4853 48.6807 24.4854 48.5467 24.5127C48.4128 24.5401 48.2857 24.5943 48.1731 24.6719C48.0606 24.7496 47.9649 24.8492 47.8918 24.9648C47.8186 25.0803 47.7696 25.2095 47.7476 25.3444C47.7256 25.4794 47.7311 25.6174 47.7638 25.7502C48.5157 29.4204 48.6085 33.195 48.038 36.8977C48.038 36.9201 48.0288 36.9414 48.0268 36.9638C47.9679 37.3406 47.912 37.7173 47.8389 38.0911C44.466 35.5581 40.0125 31.7343 39.5341 29.9255C39.502 29.7944 39.4441 29.671 39.3637 29.5626C39.2834 29.4542 39.1822 29.3629 39.0662 29.294C38.9501 29.2251 38.8215 29.18 38.6878 29.1614C38.5542 29.1428 38.4181 29.151 38.2877 29.1855C38.1572 29.2201 38.035 29.2803 37.9281 29.3626C37.8211 29.445 37.7317 29.5478 37.665 29.6651C37.5982 29.7824 37.5555 29.9118 37.5394 30.0458C37.5233 30.1798 37.534 30.3157 37.5709 30.4455C38.3773 33.4923 45.2054 38.6873 47.3341 40.2452C46.8244 42.1334 46.1385 43.9696 45.2856 45.7296C45.1841 45.9327 45.0906 46.1481 44.9809 46.3532C39.0629 42.0977 33.0778 37.0034 32.767 35.3672C32.7168 35.1025 32.5635 34.8687 32.3408 34.7171C32.1182 34.5655 31.8444 34.5085 31.5798 34.5588C31.3151 34.609 31.0813 34.7623 30.9297 34.9849C30.778 35.2076 30.7211 35.4814 30.7713 35.746C31.3594 38.8467 40.7041 45.7865 43.9897 48.1427C43.0969 49.6419 42.083 51.0654 40.9581 52.3992C40.872 52.5012 40.8068 52.6191 40.7663 52.7463C40.7258 52.8734 40.7107 53.0073 40.7219 53.1403C40.7331 53.2733 40.7704 53.4027 40.8317 53.5213C40.8929 53.6398 40.9769 53.7452 41.0789 53.8313C41.1809 53.9174 41.2988 53.9825 41.4259 54.023C41.5531 54.0636 41.687 54.0786 41.82 54.0674C41.9529 54.0562 42.0824 54.0189 42.201 53.9576C42.3195 53.8964 42.4249 53.8124 42.5109 53.7104C44.259 51.6376 45.7515 49.3622 46.9563 46.9331C48.5478 46.2902 54.087 43.9472 55.8816 41.7951C55.9671 41.6927 56.0316 41.5744 56.0714 41.447C56.1112 41.3197 56.1255 41.1857 56.1135 41.0529C56.1015 40.92 56.0635 40.7908 56.0016 40.6726C55.9397 40.5544 55.8551 40.4496 55.7527 40.3641C55.6502 40.2786 55.532 40.2141 55.4046 40.1743C55.2773 40.1345 55.1433 40.1202 55.0104 40.1322C54.8776 40.1442 54.7483 40.1822 54.6301 40.2441C54.512 40.306 54.4071 40.3906 54.3216 40.4931C53.3314 41.6813 50.443 43.1682 48.168 44.1991C48.9758 42.1208 49.5716 39.9662 49.9463 37.7681C51.615 37.1334 56.3173 35.097 57.8032 31.8257C57.9134 31.5811 57.9224 31.3029 57.8283 31.0517C57.7341 30.8006 57.5443 30.5968 57.3005 30.4851Z" fill="#64A606"/>
<path d="M58.9935 18.7962C58.9429 18.6451 58.9152 18.4873 58.9113 18.328C58.9137 17.4279 58.5842 16.5586 57.9856 15.8864C57.3871 15.2142 56.5617 14.7864 55.6673 14.6849C54.2454 13.5961 52.9826 12.3138 51.9156 10.8753C50.1434 8.77806 48.3112 6.6097 46.611 5.88149C46.3044 5.7558 45.9878 5.65626 45.6645 5.58391C45.632 5.57274 45.5974 5.57071 45.5629 5.56259C43.8874 5.31486 42.1816 5.35953 40.5213 5.69462C39.3969 5.89245 38.2566 5.98662 37.1149 5.97595C35.636 5.82691 34.1793 5.50688 32.7741 5.02227C30.6891 4.39766 28.5319 3.75477 26.458 4.11532C24.2073 4.5104 22.5458 5.8886 20.9391 7.22212C20.0009 8.0808 18.9527 8.811 17.8221 9.39352L17.8038 9.40266L17.7927 9.40876C16.697 9.98055 15.6383 10.6206 14.6229 11.3252C13.1048 12.3922 11.4975 13.3263 9.81899 14.1172C9.55003 13.9383 9.25966 13.794 8.95469 13.6876C8.54945 13.5651 8.12357 13.5262 7.70285 13.5732C7.28212 13.6201 6.8753 13.752 6.50704 13.9608C6.0842 14.1885 5.71221 14.5001 5.41379 14.8764C5.11536 15.2527 4.89676 15.6859 4.77133 16.1495C4.52794 17.1849 4.62372 18.2712 5.04454 19.2481C5.20863 19.5643 5.30437 19.9114 5.32554 20.2669C5.34671 20.6225 5.29284 20.9785 5.16743 21.3119C3.83431 24.5149 3.11661 27.9405 3.05188 31.4092C3.05188 43.1042 11.3353 53.2756 23.0597 56.9014L23.9738 58.1273C24.2437 58.488 24.3865 58.928 24.38 59.3785C24.3813 60.4451 24.8056 61.4675 25.5598 62.2217C26.3139 62.9758 27.3364 63.4001 28.4029 63.4014H35.1802C36.0138 63.4105 36.8366 63.2115 37.574 62.8225C38.1832 62.4857 38.694 61.9959 39.0561 61.4013C39.4182 60.8068 39.619 60.1282 39.6388 59.4324C39.6735 59.0054 39.7764 58.5867 39.9434 58.1923C40.2989 57.4986 40.9306 57.2488 42.0163 56.872L42.7181 56.6221C44.024 56.1804 45.3031 55.6632 46.5491 55.0733C48.4725 54.1205 50.2875 52.9627 51.9623 51.6202C55.2433 48.9998 57.8768 45.6591 59.6588 41.857C61.1666 38.5799 61.9509 35.0165 61.9581 31.4092C61.9447 28.6998 61.4814 26.0114 60.587 23.4538L58.9935 18.7962ZM26.8104 6.12016C28.4151 5.83579 30.2493 6.38931 32.1932 6.97126C33.7535 7.50628 35.3719 7.85336 37.0144 8.00516C37.7153 8.02996 38.4171 8.00144 39.1137 7.91985C37.4049 8.95339 35.7754 10.1127 34.2387 11.3882C34.0448 11.5656 33.9272 11.8112 33.9106 12.0735C33.894 12.3358 33.9797 12.5943 34.1497 12.7946C34.3198 12.995 34.5608 13.1217 34.8223 13.1481C35.0838 13.1745 35.3453 13.0984 35.5519 12.936C35.6098 12.8863 41.3897 8.01431 45.2866 7.57352C45.4666 7.61879 45.6429 7.67787 45.8138 7.75024C47.0701 8.28649 48.82 10.3584 50.3638 12.1865C50.6583 12.5349 50.9477 12.8761 51.2362 13.2113L50.6603 12.7796C50.121 12.3721 49.4783 12.1239 48.8051 12.0633C48.1319 12.0026 47.4552 12.1318 46.8517 12.4363L45.3171 13.2031C44.8477 13.4378 44.4347 13.7712 44.1063 14.1806C43.7779 14.5899 43.5421 15.0655 43.4148 15.5746L42.9842 17.3012C42.9284 17.5263 42.8245 17.7366 42.6794 17.9175C42.5344 18.0985 42.3518 18.2458 42.1443 18.3493L41.5715 18.6347C41.2219 18.8094 40.903 19.0395 40.627 19.3162L38.9928 20.9483L37.8634 17.9014C37.6703 17.3861 37.3247 16.9418 36.8728 16.6277C36.4208 16.3136 35.8839 16.1447 35.3335 16.1434H32.765C32.6457 16.1434 32.5285 16.1114 32.4258 16.0506C32.323 15.9899 32.2385 15.9026 32.181 15.7981L31.3878 14.3711C30.9471 13.5792 30.2931 12.9267 29.5001 12.4879C28.7071 12.0492 27.8069 11.8416 26.9018 11.8889L25.4911 11.9681C25.3269 11.9735 25.1663 11.9198 25.0385 11.8167C24.9106 11.7136 24.824 11.568 24.7944 11.4065C24.6888 10.7521 24.3467 10.1592 23.833 9.74025C23.3193 9.3213 22.6698 9.10541 22.0075 9.13352L21.7963 9.14368L22.234 8.78516C23.7046 7.56743 25.0909 6.41774 26.8104 6.12016ZM15.733 13.0264C16.84 12.3053 17.8719 11.636 18.5016 11.3273L22.103 11.1638C22.2678 11.1523 22.4308 11.2041 22.5588 11.3086C22.6867 11.4132 22.77 11.5626 22.7916 11.7264C22.8958 12.3867 23.2417 12.9847 23.7622 13.4042C24.2827 13.8237 24.9405 14.0347 25.6079 13.9963L27.0196 13.9171C27.5431 13.888 28.0641 14.0072 28.5228 14.2611C28.9815 14.515 29.3592 14.8932 29.6125 15.3522L30.4027 16.7842C30.4796 16.908 30.5665 17.0252 30.6627 17.1346C29.8966 17.4188 29.086 17.5643 28.2688 17.5642C26.9152 17.4847 25.5749 17.2527 24.2734 16.8726C22.7593 16.39 21.1735 16.1711 19.5852 16.2256C17.5652 16.4795 16.2052 18.6002 15.5441 19.9327C15.0133 19.6751 14.532 19.3262 14.1222 18.9018C13.6987 18.4234 13.2772 17.875 12.8313 17.2941C12.3855 16.7131 11.9376 16.1312 11.4714 15.601C12.9372 14.82 14.3598 13.9606 15.733 13.0264ZM57.8144 41.0018C56.1641 44.5193 53.7263 47.6097 50.6898 50.0338C49.129 51.2857 47.4377 52.3655 45.6452 53.2543C44.471 53.8078 43.2658 54.2931 42.0356 54.7077L41.3491 54.9524C40.6844 55.098 40.0567 55.3784 39.5047 55.7761C38.9527 56.1739 38.4881 56.6806 38.1397 57.265C37.8665 57.8556 37.6948 58.4881 37.6319 59.1358C37.4866 60.122 37.3831 60.6135 36.6041 61.0391C36.1649 61.2656 35.6763 61.3794 35.1822 61.3702H28.4029C28.1374 61.3683 27.8749 61.3138 27.6307 61.2098C27.3864 61.1057 27.1652 60.9542 26.9799 60.764C26.7947 60.5739 26.649 60.3488 26.5514 60.1019C26.4538 59.855 26.4061 59.5912 26.4113 59.3257C26.4065 58.7546 26.2805 58.191 26.0416 57.6723C26.6936 57.8063 27.3619 57.913 28.0261 58.0064C28.0444 58.0064 28.0606 58.0156 28.0789 58.0186C28.1134 58.0247 28.147 58.0257 28.1805 58.0288C28.3572 58.0521 28.5329 58.0816 28.7106 58.1019C28.7504 58.1068 28.7904 58.1092 28.8305 58.109C29.0845 58.102 29.3267 58.0001 29.5093 57.8233C29.6918 57.6464 29.8015 57.4076 29.8165 57.1539C29.8316 56.9002 29.7509 56.6501 29.5906 56.4529C29.4302 56.2558 29.2018 56.1259 28.9503 56.0889C28.7604 56.0666 28.5745 56.0361 28.3856 56.0107C25.8116 55.4918 23.3686 54.4592 21.2027 52.9747C19.0368 51.4902 17.1923 49.5842 15.7797 47.3708C16.3109 45.6087 17.9298 39.8196 17.2493 36.8083C17.1902 36.5454 17.029 36.3168 16.8013 36.1727C16.5736 36.0286 16.298 35.9809 16.0351 36.04C15.7722 36.0991 15.5436 36.2602 15.3995 36.4879C15.2554 36.7156 15.2077 36.9913 15.2668 37.2542C15.6731 39.0488 14.9814 42.5049 14.3334 45.0064C12.5138 41.6003 11.274 37.915 10.665 34.1017C10.6489 33.9692 10.6069 33.8412 10.5414 33.725C10.4759 33.6088 10.3881 33.5067 10.2831 33.4244C10.1781 33.3421 10.0579 33.2813 9.92936 33.2455C9.80086 33.2096 9.66655 33.1994 9.53411 33.2155C9.40167 33.2316 9.27369 33.2736 9.15748 33.3391C9.04127 33.4047 8.93911 33.4924 8.85682 33.5974C8.77454 33.7025 8.71374 33.8227 8.67791 33.9512C8.64207 34.0797 8.6319 34.214 8.64797 34.3464C9.41715 39.1569 11.1365 43.766 13.7058 47.905C13.7615 48.0789 13.8633 48.2344 14.0003 48.3549C14.7934 49.5441 15.6842 50.6651 16.6633 51.7065C9.62297 47.1646 5.08313 39.6998 5.08313 31.4092C5.14629 28.206 5.8123 25.0434 7.04633 22.0868C7.268 21.5282 7.37521 20.9307 7.3616 20.3299C7.34799 19.729 7.21385 19.137 6.96711 18.589C6.68376 17.9901 6.60284 17.3153 6.73657 16.6664C6.79086 16.4707 6.88453 16.2882 7.01184 16.13C7.13915 15.9717 7.29742 15.8412 7.47696 15.7463C7.72955 15.5928 8.03267 15.5457 8.31993 15.6152C9.20555 15.9077 10.277 17.3012 11.2216 18.5311C11.6695 19.1141 12.1356 19.7163 12.6018 20.2485C13.3967 21.0599 14.346 21.704 15.3938 22.1427C16.2513 22.4901 17.0291 23.0085 17.6799 23.6661C19.3019 25.5714 20.4546 30.4952 20.7644 32.2288C20.8142 32.4915 20.9656 32.7239 21.1857 32.8756C21.4057 33.0274 21.6768 33.0862 21.9399 33.0394C22.2031 32.9927 22.4373 32.844 22.5916 32.6257C22.7459 32.4074 22.8079 32.1371 22.7641 31.8734C22.7144 31.5971 21.5332 25.0636 19.2277 22.3529C18.6938 21.7513 18.056 21.2508 17.3448 20.8752C17.8698 19.822 18.8083 18.3686 19.8361 18.2396C21.1764 18.2296 22.5097 18.4333 23.7859 18.8429C25.2456 19.2682 26.7502 19.5205 28.2688 19.5945C29.9797 19.605 31.6559 19.1123 33.089 18.1777H35.3335C35.4695 18.1778 35.6022 18.2194 35.714 18.2969C35.8258 18.3744 35.9113 18.4841 35.9591 18.6113L37.2236 22.0157L34.9486 22.4707C34.2742 22.608 33.6522 22.9328 33.1541 23.4078C32.6561 23.8829 32.3022 24.4888 32.1333 25.156L31.8448 26.3077C31.7829 26.5543 31.6635 26.7827 31.4963 26.9743C31.3292 27.1658 31.119 27.315 30.8831 27.4097L28.0698 28.535C27.622 28.7154 27.2145 28.9826 26.8705 29.3213C26.5266 29.66 26.2532 30.0635 26.0659 30.5084L25.2159 32.5396C25.1883 32.6071 25.1676 32.6772 25.1539 32.7488C24.6522 35.513 24.5309 38.3328 24.7934 41.1298C23.7197 39.2573 23.2941 37.0827 23.5827 34.9436C23.6032 34.8102 23.5968 34.674 23.564 34.543C23.5312 34.4121 23.4726 34.289 23.3916 34.1809C23.3107 34.0729 23.209 33.9821 23.0926 33.9138C22.9761 33.8455 22.8472 33.8011 22.7134 33.7832C22.5796 33.7653 22.4436 33.7743 22.3133 33.8096C22.183 33.8449 22.061 33.9058 21.9545 33.9888C21.848 34.0718 21.7592 34.1751 21.6931 34.2929C21.627 34.4106 21.5851 34.5403 21.5698 34.6745C21.3378 36.3895 21.4854 38.1346 22.002 39.7864C22.5187 41.4382 23.3918 42.9563 24.5598 44.2335L25.4556 45.2156C26.1495 48.2285 27.2934 51.1196 28.8488 53.7916C30.0156 55.7764 31.7869 57.3359 33.9035 58.242C34.1513 58.3479 34.431 58.351 34.6811 58.2506C34.9312 58.1502 35.1312 57.9546 35.237 57.7068C35.3429 57.459 35.346 57.1793 35.2456 56.9292C35.1452 56.6791 34.9496 56.4792 34.7018 56.3733C32.9853 55.6403 31.5488 54.3767 30.6027 52.7678C27.1641 46.8705 25.933 39.9431 27.1293 33.2221L27.9357 31.2924C28.1034 30.8959 28.4215 30.5822 28.8203 30.42L31.6336 29.2957C32.1675 29.0806 32.6431 28.7425 33.0217 28.3089C33.4002 27.8753 33.6711 27.3584 33.8121 26.8003L34.0995 25.6476C34.1746 25.3522 34.3318 25.0842 34.5529 24.8744C34.7739 24.6647 35.0499 24.5218 35.3488 24.4624L38.0219 23.9281C38.7263 23.7877 39.3732 23.4413 39.8805 22.9328L42.063 20.7452C42.1845 20.6218 42.3251 20.5189 42.4795 20.4405L43.0523 20.1551C43.5217 19.9204 43.9347 19.587 44.2631 19.1776C44.5914 18.7683 44.8273 18.2927 44.9545 17.7836L45.3852 16.057C45.4409 15.8319 45.5449 15.6216 45.6899 15.4407C45.835 15.2597 46.0175 15.1124 46.2251 15.0089L47.7607 14.2421C48.027 14.1078 48.3257 14.0508 48.6228 14.0775C48.9199 14.1043 49.2035 14.2137 49.4416 14.3934L51.5073 15.9423C52.1363 16.4181 52.9023 16.6778 53.6909 16.6827H55.3424C55.77 16.7053 56.1715 16.8958 56.4595 17.2129C56.7474 17.5299 56.8985 17.9478 56.88 18.3757C56.8884 18.7375 56.951 19.0959 57.0659 19.4391L58.6675 24.1211C59.4873 26.4641 59.9129 28.9269 59.9269 31.4092C59.9197 34.7214 59.1992 37.9931 57.8144 41.0018Z" fill="#64A606"/>
</svg>
